<?xml version="1.0" encoding="utf-8"?>
<!-- Generator: Adobe Illustrator 24.0.1, SVG Export Plug-In . SVG Version: 6.00 Build 0)  -->
<svg version="1.1" id="Calque_1" xmlns="http://www.w3.org/2000/svg" xmlns:xlink="http://www.w3.org/1999/xlink" x="0px" y="0px"
	 viewBox="0 0 153 41" style="enable-background:new 0 0 153 41;" xml:space="preserve">
<style type="text/css">
	.st0{fill:#292929;}
	.st1{fill-rule:evenodd;clip-rule:evenodd;fill:#292929;}
	.st2{clip-path:url(#SVGID_2_);}
	.st3{fill:#1890FF;}
	.st4{fill:#FFFFFF;}
</style>
<path class="st0" d="M58.9,30c4.8,0,7.5-2.9,7.5-7.5V11.8H63v10.8c0,2.6-1.3,4.2-4.1,4.2c-2.7,0-4.1-1.6-4.1-4.2V11.8h-3.5v10.8
	C51.3,27.2,54,30,58.9,30z"/>
<path class="st0" d="M69.3,29.7h3.2v-7c0-2.6,1.4-3.8,3.4-3.8c2,0,3.4,1.2,3.4,3.8v7h3.2v-7c0-4.5-2.7-6.8-6.7-6.8
	c-4,0-6.7,2.3-6.7,6.8V29.7z"/>
<path class="st0" d="M87.6,14.5c1.3,0,2.2-0.9,2.2-2.2c0-1.3-0.9-2.2-2.2-2.2c-1.3,0-2.2,0.9-2.2,2.2C85.4,13.6,86.3,14.5,87.6,14.5
	z M86,29.7h3.2V16.2H86V29.7z"/>
<path class="st0" d="M92.5,29.7h3.2V22c0-2.2,1.1-3.1,2.7-3.1c1.6,0,2.7,0.9,2.7,3.1v7.7h3.2V22c0-2.2,1.1-3.1,2.7-3.1
	c1.6,0,2.7,0.9,2.7,3.1v7.7h3.3V22c0-4.2-2.5-6.1-5.7-6.1c-2,0-3.7,0.8-4.7,2.4c-1-1.6-2.6-2.4-4.7-2.4c-3.2,0-5.7,1.9-5.7,6.1V29.7
	z"/>
<path class="st0" d="M122.8,30c3.2,0,5.7-1.7,6.7-4.2H126c-0.7,0.9-1.7,1.3-3.2,1.3c-1.9,0-3.4-1-3.9-3H130v-1.1
	c0-4.1-3-7.1-7.2-7.1c-4.3,0-7.3,3-7.3,7.1S118.5,30,122.8,30z M119,21.5c0.5-1.8,1.9-2.7,3.8-2.7c1.8,0,3.3,0.9,3.8,2.7H119z"/>
<path class="st0" d="M149.6,29.7h3.3V10.3h-3.3V29.7z"/>
<path class="st1" d="M138.5,15.8c2.1,0,4,1,4.8,3v-2.6h3v6.6c0,0,0,0.1,0,0.1s0,0.1,0,0.1v6.6h-3V27c-0.8,2-2.6,3-4.8,3
	c-3.3,0-6.7-2.3-6.7-7c0,0,0-0.1,0-0.1c0,0,0-0.1,0-0.1C131.7,18.2,135.2,15.8,138.5,15.8z M135,22.9c0,2.4,1.6,4.1,4,4.1
	c2.4,0,4-1.7,4-4.1c0-2.4-1.6-4.1-4-4.1C136.6,18.9,135,20.6,135,22.9z"/>
<g>
	<defs>
		<rect id="SVGID_1_" x="0.1" y="0.1" width="40" height="40"/>
	</defs>
	<clipPath id="SVGID_2_">
		<use xlink:href="#SVGID_1_"  style="overflow:visible;"/>
	</clipPath>
	<g class="st2">
		<path class="st3" d="M0.1,15.1c0-5.3,0-8,1.1-10c0.9-1.7,2.3-3.1,4-4c2-1.1,4.7-1.1,10-1.1H25c5.3,0,8,0,10,1.1
			c1.7,0.9,3.1,2.3,4,4c1.1,2,1.1,4.7,1.1,10v9.9c0,5.3,0,8-1.1,10c-0.9,1.7-2.3,3.1-4,4c-2,1.1-4.7,1.1-10,1.1h-9.9
			c-5.3,0-8,0-10-1.1c-1.7-0.9-3.1-2.3-4-4c-1.1-2-1.1-4.7-1.1-10V15.1z"/>
		<path class="st4" d="M27.5,16.9c3.6,0,6.5,2.7,6.9,6.1c0,0.2,0,0.3,0,0.5h0v3.6h-4.1c0,0,0-3.1,0-3.4s-0.1-0.7-0.1-0.7
			c-0.3-1.2-1.4-2-2.7-2c-1.3,0-2.4,0.9-2.7,2c0,0-0.1,0.4-0.1,0.7s0,1.4,0,1.4v2h-4.1v-3.6h0c0-0.2,0-0.3,0-0.5
			C21.1,19.6,24,16.9,27.5,16.9z"/>
		<path class="st4" d="M9.8,12.5H5.7v8.8c0,3.8,3.1,6.9,6.9,6.9c3.8,0,6.9-3.1,6.9-6.9v-8.8h-4.1v8.8c0,1.6-1.3,2.8-2.8,2.8
			c-1.5,0-2.8-1.3-2.8-2.8V12.5z"/>
		<ellipse class="st4" cx="32.4" cy="13.8" rx="2.3" ry="2.3"/>
	</g>
</g>
</svg>
